<svg xmlns="http://www.w3.org/2000/svg" viewBox="0 0 500 500"><g id="freepik--background-complete--inject-43"><rect y="382.4" width="500" height="0.25" style="fill:#ebebeb"></rect><rect x="52.46" y="391.92" width="25.54" height="0.25" style="fill:#ebebeb"></rect><rect x="154.06" y="389.21" width="109.94" height="0.25" style="fill:#ebebeb"></rect><rect x="97.33" y="395.18" width="72.67" height="0.25" style="fill:#ebebeb"></rect><rect x="353.66" y="399.53" width="96.25" height="0.25" style="fill:#ebebeb"></rect><rect x="338.42" y="399.53" width="6.33" height="0.25" style="fill:#ebebeb"></rect><rect x="301.22" y="395.31" width="69.67" height="0.25" style="fill:#ebebeb"></rect><path d="M237,337.8H43.91a5.71,5.71,0,0,1-5.7-5.71V60.66A5.71,5.71,0,0,1,43.91,55H237a5.71,5.71,0,0,1,5.71,5.71V332.09A5.71,5.71,0,0,1,237,337.8ZM43.91,55.2a5.46,5.46,0,0,0-5.45,5.46V332.09a5.46,5.46,0,0,0,5.45,5.46H237a5.47,5.47,0,0,0,5.46-5.46V60.66A5.47,5.47,0,0,0,237,55.2Z" style="fill:#ebebeb"></path><path d="M453.31,337.8H260.21a5.72,5.72,0,0,1-5.71-5.71V60.66A5.72,5.72,0,0,1,260.21,55h193.1A5.71,5.71,0,0,1,459,60.66V332.09A5.71,5.71,0,0,1,453.31,337.8ZM260.21,55.2a5.47,5.47,0,0,0-5.46,5.46V332.09a5.47,5.47,0,0,0,5.46,5.46h193.1a5.47,5.47,0,0,0,5.46-5.46V60.66a5.47,5.47,0,0,0-5.46-5.46Z" style="fill:#ebebeb"></path><rect x="126.25" y="77.98" width="262.21" height="117.44" transform="translate(514.72 273.41) rotate(180)" style="fill:#e6e6e6"></rect><rect x="120.73" y="77.98" width="265.16" height="117.44" transform="translate(506.62 273.41) rotate(180)" style="fill:#f0f0f0"></rect><rect x="126.25" y="195.43" width="262.21" height="3.98" transform="translate(514.72 394.83) rotate(180)" style="fill:#e6e6e6"></rect><rect x="111.53" y="195.43" width="265.16" height="3.98" transform="translate(488.22 394.83) rotate(180)" style="fill:#f0f0f0"></rect><rect x="202.32" y="11.86" width="101.98" height="249.69" transform="translate(390.02 -116.6) rotate(90)" style="fill:#fafafa"></rect><polygon points="310.71 187.7 265.34 85.72 218.9 85.72 264.28 187.7 310.71 187.7" style="fill:#fff"></polygon><path d="M374.58,170.65a.55.55,0,0,0,.55-.55V90.75a.56.56,0,0,0-.55-.56.55.55,0,0,0-.55.56V170.1A.54.54,0,0,0,374.58,170.65Z" style="fill:#f0f0f0"></path><polygon points="246.82 187.7 201.44 85.72 185.38 85.72 230.75 187.7 246.82 187.7" style="fill:#fff"></polygon><rect x="77.96" y="136.21" width="101.98" height="0.98" transform="translate(265.66 7.75) rotate(90)" style="fill:#e6e6e6"></rect><g style="opacity:0.5"><polygon points="118.9 96.33 381.12 96.33 381.83 88.72 119.61 88.72 118.9 96.33" style="fill:#e6e6e6"></polygon><polygon points="118.9 108.91 381.12 108.91 381.83 101.29 119.61 101.29 118.9 108.91" style="fill:#e6e6e6"></polygon><polygon points="118.9 121.48 381.12 121.48 381.83 113.87 119.61 113.87 118.9 121.48" style="fill:#e6e6e6"></polygon><polygon points="118.9 134.06 381.12 134.06 381.83 126.44 119.61 126.44 118.9 134.06" style="fill:#e6e6e6"></polygon><polygon points="118.9 146.63 381.12 146.63 381.83 139.01 119.61 139.01 118.9 146.63" style="fill:#e6e6e6"></polygon><polygon points="118.9 159.2 381.12 159.2 381.83 151.59 119.61 151.59 118.9 159.2" style="fill:#e6e6e6"></polygon></g><rect x="395.25" y="274.73" width="25.9" height="102.82" transform="translate(816.41 652.28) rotate(180)" style="fill:#f0f0f0"></rect><rect x="293.97" y="377.55" width="122.21" height="4.85" transform="translate(710.15 759.95) rotate(180)" style="fill:#f0f0f0"></rect><rect x="289" y="274.73" width="106.26" height="102.82" style="fill:#f5f5f5"></rect><path d="M385.06,339.11H299.18a.41.41,0,0,1-.41-.42V313.58a.41.41,0,0,1,.41-.42h33.28a.42.42,0,0,1,.33.68,1.25,1.25,0,0,0-.27.77,1.33,1.33,0,0,0,1.37,1.3h16.47a1.33,1.33,0,0,0,1.37-1.3,1.25,1.25,0,0,0-.27-.77.42.42,0,0,1,.33-.68h33.27a.42.42,0,0,1,.42.42v25.11A.42.42,0,0,1,385.06,339.11Zm-85.46-.84h85V314H352.48a2.1,2.1,0,0,1,.09.61,2.18,2.18,0,0,1-2.21,2.14H333.89a2.18,2.18,0,0,1-2.21-2.14,2.1,2.1,0,0,1,.09-.61H299.6Z" style="fill:#fff"></path><path d="M385.06,368.8H299.18a.41.41,0,0,1-.41-.42V343.27a.41.41,0,0,1,.41-.42h33.29a.44.44,0,0,1,.38.24.43.43,0,0,1-.06.45,1.16,1.16,0,0,0-.27.76,1.34,1.34,0,0,0,1.37,1.31h16.47a1.34,1.34,0,0,0,1.37-1.31,1.22,1.22,0,0,0-.27-.76.41.41,0,0,1-.06-.45.44.44,0,0,1,.38-.24h33.28a.42.42,0,0,1,.42.42v25.11A.42.42,0,0,1,385.06,368.8ZM299.6,368h85V343.69H352.48a2.1,2.1,0,0,1,.09.61,2.18,2.18,0,0,1-2.21,2.15H333.89a2.18,2.18,0,0,1-2.21-2.15,2.1,2.1,0,0,1,.09-.61H299.6Z" style="fill:#fff"></path><path d="M385.06,309.42H299.18a.41.41,0,0,1-.41-.42V283.89a.41.41,0,0,1,.41-.42h33.28a.44.44,0,0,1,.38.24.43.43,0,0,1,0,.45,1.16,1.16,0,0,0-.27.76,1.33,1.33,0,0,0,1.37,1.3h16.47a1.33,1.33,0,0,0,1.37-1.3,1.16,1.16,0,0,0-.27-.76.43.43,0,0,1,0-.45.44.44,0,0,1,.38-.24h33.27a.42.42,0,0,1,.42.42V309A.41.41,0,0,1,385.06,309.42Zm-85.46-.84h85V284.31H352.48a2.1,2.1,0,0,1,.09.61,2.18,2.18,0,0,1-2.21,2.14H333.89a2.18,2.18,0,0,1-2.21-2.14,2.1,2.1,0,0,1,.09-.61H299.6Z" style="fill:#fff"></path><rect x="285.54" y="266.29" width="109.71" height="8.44" transform="translate(680.8 541.02) rotate(180)" style="fill:#f0f0f0"></rect><rect x="395.25" y="266.29" width="29.52" height="8.44" style="fill:#e6e6e6"></rect><rect x="48.8" y="242.92" width="41.53" height="139.48" transform="translate(139.12 625.31) rotate(180)" style="fill:#f5f5f5"></rect><rect x="48.8" y="242.92" width="6.85" height="139.48" transform="translate(104.45 625.31) rotate(180)" style="fill:#f0f0f0"></rect><rect x="83.92" y="247.52" width="157.67" height="34.9" style="fill:#e6e6e6"></rect><rect x="83.92" y="292.87" width="157.67" height="8.06" style="fill:#e6e6e6"></rect><rect x="48.8" y="242.92" width="183.58" height="12.12" style="fill:#f0f0f0"></rect><rect x="232.38" y="242.92" width="41.52" height="139.48" transform="translate(506.28 625.31) rotate(180)" style="fill:#f5f5f5"></rect><rect x="232.38" y="242.92" width="6.85" height="139.48" transform="translate(471.6 625.31) rotate(180)" style="fill:#f0f0f0"></rect></g><g id="freepik--Shadow--inject-43"><ellipse id="freepik--path--inject-43" cx="250" cy="416.24" rx="193.89" ry="11.32" style="fill:#f5f5f5"></ellipse></g><g id="freepik--character-1--inject-43"><path d="M187,151a17.71,17.71,0,0,1-6.24,3.84,31,31,0,0,0-1.31-7.51s.2,5.45-1.35,8.45a55.83,55.83,0,0,1-6.72,1.68,15,15,0,0,0-.56-2,10.27,10.27,0,0,1-.45,2.18c-7.57,1.38-18,3.63-27.43,2-5.75-7.4.27-12.87.86-17.24.77-5.72-4.59-7.06-3.94-11.7s5.84-1.82,8.45-7.07c3.46-7,11.06-11.15,17.7-9.84,8.79,1.75,5.76,14.92,12.55,19.15S188.72,144.47,187,151Z" style="fill:#263238"></path><path d="M186.85,152.73h-.08a.24.24,0,0,1-.15-.31c1.85-5.38,2.72-12.3-7.11-18.13-3.63-2.16-4.64-6.05-5.63-9.81-1.33-5.09-2.57-9.89-10.24-9.78a.26.26,0,0,1-.24-.24.23.23,0,0,1,.24-.25c8-.11,9.4,5.1,10.72,10.14.95,3.67,1.95,7.46,5.4,9.52,10.25,6.08,9.08,13.59,7.32,18.71A.25.25,0,0,1,186.85,152.73Z" style="fill:#263238"></path><path d="M176,217.32s-.4,48.9-3.46,89.07c-6.63,39.76-12.44,94.34-12.44,94.34h-6.34s-6.39-72.43.66-95.73c-4.18-29.88-2.88-86.87-2.88-86.87Z" style="fill:#b55b52"></path><path d="M184.37,174.21c0,.46,0,1.14,0,1.72l.08,1.83c.07,1.23.18,2.46.32,3.67a54.23,54.23,0,0,0,1.26,7.17,35.35,35.35,0,0,0,2.32,6.54,18.85,18.85,0,0,0,3.64,5.23l.37.37a1.16,1.16,0,0,0-.63-.33c-.12,0,0,.06.31.05a8.46,8.46,0,0,0,2.4-.62,38.3,38.3,0,0,0,5.88-3c2-1.19,3.94-2.51,5.89-3.87s3.91-2.78,5.8-4.18l0,0a2.31,2.31,0,0,1,3.13,3.36c-1.66,1.94-3.39,3.69-5.18,5.45s-3.68,3.41-5.69,5a41.06,41.06,0,0,1-6.68,4.39,16.56,16.56,0,0,1-4.53,1.55,8.5,8.5,0,0,1-3.32-.06,7.1,7.1,0,0,1-3.73-2.17l.38.38a26,26,0,0,1-5.92-7.37,38.57,38.57,0,0,1-3.33-8.28,56.93,56.93,0,0,1-1.69-8.45c-.17-1.41-.29-2.83-.37-4.25,0-.71-.07-1.42-.08-2.14s0-1.39,0-2.25a4.64,4.64,0,0,1,9.27.19Z" style="fill:#b55b52"></path><path d="M221.74,188.73l-.25-3.85a2.18,2.18,0,0,0-2.54-2h0a8.82,8.82,0,0,0-5,2.7l-4.2,4.5-.76,4.2c3.38,1.66,8.11-1.74,8.11-1.74l3.45-1.7A2.18,2.18,0,0,0,221.74,188.73Z" style="fill:#b55b52"></path><path d="M181.33,167.14c6.63,5.33,5.62,11.21,7.09,15.55-3.07,5.2-15.21,7.65-15.21,7.65S174.18,161.39,181.33,167.14Z" style="fill:#2C3E50"></path><path d="M184.27,173c1,13.65-7.29,24-8,38.39l-34.46-.84c1-14,.58-12.62-4.34-39.73a5.56,5.56,0,0,1,4.83-6.52c2.56-.29,5.73-.57,9.06-.63a116.54,116.54,0,0,1,16.73.47c3.59.43,7.42,1.12,10.34,1.7C181.86,166.49,184,169.5,184.27,173Z" style="fill:#2C3E50"></path><path d="M169.07,177.83c.14,1.41-.57,2.55-1.59,2.55s-2-1.13-2.1-2.54.57-2.56,1.59-2.56S168.93,176.42,169.07,177.83Z" style="fill:#fff"></path><path d="M167.22,171.46c2.32.59,4.8,2.18,5.79,6.24,6.92-10.36-4.9-13.59-4.9-13.59Z" style="fill:#fff"></path><path d="M163.15,172a6.52,6.52,0,0,0-7.31,5.66c-7.59-9.88-4.46-14.06-4.46-14.06Z" style="fill:#fff"></path><path d="M153.57,144.85c.9,5.41,1.68,15.3-2.19,18.79,0,0,6.82,7.39,14.59,9.34a8.78,8.78,0,0,0,2.14-8.87c-6-1.6-5.68-6.05-4.52-10.2Z" style="fill:#b55b52"></path><path d="M157.65,148.55l5.94,5.35a16.36,16.36,0,0,0-.6,3c-2.29-.4-5.37-3-5.54-5.41A8,8,0,0,1,157.65,148.55Z" style="opacity:0.2"></path><path d="M147.22,138.83c3.52,8.29,4.84,11.87,10.66,14.7,8.75,4.26,18.16-1.88,17.19-11.05-.88-8.26-6.49-20.42-16-20.86A12.29,12.29,0,0,0,147.22,138.83Z" style="fill:#b55b52"></path><path d="M146.15,132.22c11.26-.09,27-5.72,22.37-11.61C166.15,108.89,146.31,121.09,146.15,132.22Z" style="fill:#263238"></path><path d="M147.85,130.28c7.54,4.22,5.54,12.39.76,14C143.56,138.22,142.3,129.22,147.85,130.28Z" style="fill:#263238"></path><path d="M161.66,142.19s2.56-.47,9.65-.07c-1,2.17-2.61,3.9-6.24,3.66A3.38,3.38,0,0,1,161.66,142.19Z" style="fill:#263238"></path><path d="M166.52,143.46a6.46,6.46,0,0,0-4,.85,3.72,3.72,0,0,0,2.23.8,6.43,6.43,0,0,0,4-.86A3.68,3.68,0,0,0,166.52,143.46Z" style="fill:#a02724"></path><path d="M162,142.14c0,.42.2.67.85.94a30.33,30.33,0,0,0,5.72.14A3.5,3.5,0,0,0,171,142.1,56.58,56.58,0,0,0,162,142.14Z" style="fill:#fff"></path><path d="M160.8,136.29c.24.69.8,1.12,1.26,1s.61-.85.37-1.54-.81-1.12-1.26-1S160.55,135.6,160.8,136.29Z" style="fill:#263238"></path><path d="M169.64,133.19c.24.69.81,1.12,1.26,1s.62-.85.37-1.54-.81-1.12-1.26-1S169.4,132.5,169.64,133.19Z" style="fill:#263238"></path><path d="M169.83,131.76l1.49-1.07S170.92,132.29,169.83,131.76Z" style="fill:#263238"></path><path d="M167.12,134.9a19.27,19.27,0,0,0,4,3.53,3.15,3.15,0,0,1-2.3,1.34Z" style="fill:#a02724"></path><path d="M147,146.85A6.59,6.59,0,0,0,151.6,149c2.31.08,2.92-2.11,1.82-4-1-1.7-3.37-3.79-5.47-3A3,3,0,0,0,147,146.85Z" style="fill:#b55b52"></path><path d="M156.72,135.06a.4.4,0,0,0,.26-.2,3.41,3.41,0,0,1,2.53-1.81.45.45,0,0,0,.4-.46.43.43,0,0,0-.46-.4,4.25,4.25,0,0,0-3.22,2.25.43.43,0,0,0,.17.58A.4.4,0,0,0,156.72,135.06Z" style="fill:#263238"></path><path d="M170.4,129.92a.46.46,0,0,0,.2-.25.42.42,0,0,0-.29-.53,4.22,4.22,0,0,0-3.87.63.43.43,0,0,0,.55.66,3.38,3.38,0,0,1,3.07-.47A.44.44,0,0,0,170.4,129.92Z" style="fill:#263238"></path><path d="M161,134.86l1.48-1.07S162.08,135.39,161,134.86Z" style="fill:#263238"></path><path d="M166.78,218.5s-6.42,50-16.78,89.5c-14.14,30.09-30.79,53.33-47.86,78l-6-3.2c11.71-26.58,24.24-58.06,36.1-78.78,8.58-75.42,7.63-85.49,7.63-85.49Z" style="fill:#b55b52"></path><path d="M106.3,406c-.38-1.61-3.62-5.85-3.62-5.85s-1-5.75,1.94-16.35a.69.69,0,0,0-.2-.7l-5.88-5.32a.86.86,0,0,0-1.18.07c-.5.52-2.12,3.4-2.7,4.28s-1.44,2.16-2,3c-2,3.16-6.27,10.39-6.27,10.39l.77.41a65.19,65.19,0,0,1,4.61-6.16c1.74-1.85,1.66,1.41,1,4.2s1.12,7.14,6,10C104.57,407.2,106.7,407.65,106.3,406Z" style="fill:#263238"></path><path d="M176.29,211.36c7.3,23.08,1.75,46.51-1.72,90.75-16,2.41-30.33,0-46.8-5,10.58-50.78-2.47-63.44,14.06-86.59Z" style="fill:#2C3E50"></path><path d="M141.24,208a19.45,19.45,0,0,0-.4,2.72.74.74,0,0,0,.49.84c3.71.57,25.43,3.73,35.13,1.33a.68.68,0,0,0,.42-.71c0-.83,0-2.13,0-2.94,0-.42-.25-.77-.56-.77-3.39,0-21.28.08-34.58-.92A.51.51,0,0,0,141.24,208Z" style="fill:#263238"></path><path d="M158.85,207.65c1.67-.44,11.47-.15,12.36.26s.46,5.82-.33,6.16c-1.57.7-10.5.52-12.11.16S157.71,208,158.85,207.65Z" style="fill:#fff"></path><polygon points="158.95 267.26 160.3 244.96 168 234.37 158.95 267.26" style="opacity:0.2"></polygon><path d="M143.9,177c-1.33,1.64-2.79,3.45-4.1,5.24s-2.66,3.61-3.86,5.47a47.94,47.94,0,0,0-5.77,11.23c-.12.46-.26.91-.34,1.34l-.07.28a0,0,0,0,0,0,0s0,.05,0,.12a5.46,5.46,0,0,0,.64,1.87,28.69,28.69,0,0,0,3.57,5,121.68,121.68,0,0,0,9.51,9.65l.06.06a2.31,2.31,0,0,1-2.71,3.7,68.55,68.55,0,0,1-11.94-8.41,31.72,31.72,0,0,1-5.28-5.89,12.83,12.83,0,0,1-2-4.6,9.1,9.1,0,0,1-.16-1.63c0-.28,0-.59,0-.9s.05-.38.08-.58c.09-.73.24-1.41.38-2.1a38.23,38.23,0,0,1,2.66-7.44,63.88,63.88,0,0,1,3.6-6.58c1.3-2.1,2.64-4.15,4.1-6.1s2.91-3.84,4.62-5.77a4.64,4.64,0,0,1,7.07,6Z" style="fill:#b55b52"></path><path d="M142.73,164.22c-6.53.39-8.67,4.1-10.92,8.09,2,5.69,10.3,14.83,10.3,14.83S154.59,163.52,142.73,164.22Z" style="fill:#2C3E50"></path><path d="M214.21,183.46c-11.11-7.33-25.88-3.19-33,9.23-11.12-7.33-25.89-3.19-33,9.23s-3.86,28.44,7.25,35.77l40.25,26.53,25.74-45C228.58,206.8,225.33,190.79,214.21,183.46Z" style="fill:#2C3E50"></path><path d="M214.21,183.46c-11.11-7.33-25.88-3.19-33,9.23-11.12-7.33-25.89-3.19-33,9.23s-3.86,28.44,7.25,35.77l40.25,26.53,25.74-45C228.58,206.8,225.33,190.79,214.21,183.46Z" style="fill:#fff;opacity:0.9"></path><path d="M157.93,233.42a20.05,20.05,0,0,1-8.48-12.94,23,23,0,0,1,2.6-16,20.37,20.37,0,0,1,12.14-9.74A17.57,17.57,0,0,1,178.78,197l3.82,2.52,2.44-4.27a20.39,20.39,0,0,1,12.15-9.74,17.55,17.55,0,0,1,14.58,2.26c9,5.93,11.63,18.93,5.88,29l-23.29,40.72Z" style="fill:#2C3E50;opacity:0.2"></path><polygon points="196.45 238.21 185.1 241.38 177.79 205.35 189.14 202.18 196.45 238.21" style="fill:#2C3E50"></polygon><polygon points="171.75 232.58 169.25 220.28 202.49 210.98 204.98 223.28 171.75 232.58" style="fill:#2C3E50"></polygon><path d="M140.63,215.6l8.62.21-4.53,6.93s-5.14-1.27-6.46-4.9Z" style="fill:#b55b52"></path><path d="M152.82,220.81l-1.63,3.65a1.58,1.58,0,0,1-2.34.7l-4.13-2.42,4.53-6.93,3.06,2.82A2,2,0,0,1,152.82,220.81Z" style="fill:#b55b52"></path><path d="M174.77,414.47c-1.21-1.24-5.82-2.87-5.82-2.87s-4.31-5.79-7.73-16.51a.78.78,0,0,0-.56-.52l-7.86-1.88a.78.78,0,0,0-1,.62c-.13.69,0,4.63,0,5.69s0,2.58,0,3.59c.07,3.73.48,12.12.48,12.12h.87a63.33,63.33,0,0,1,.47-7.61c.43-2.46,2.17.45,3.14,3.23s4.88,5.74,10.56,5.88C174,416.37,176,415.76,174.77,414.47Z" style="fill:#263238"></path></g><g id="freepik--character-2--inject-43"><polygon points="331.37 392.44 346.67 392.58 346.09 410.64 333.31 410.53 331.37 392.44" style="fill:#ffc3bd"></polygon><polygon points="331.38 392.44 346.68 392.59 346.35 402.7 332.46 402.58 331.38 392.44" style="opacity:0.2"></polygon><path d="M347.61,320.54c5.34-23.75,14.18-48.83,4.87-70.14L310,254.11s4.21,50.55,5.34,71.91c1.18,22.21,15.6,73.45,15.6,73.45l17.5,0S351.14,345.13,347.61,320.54Z" style="fill:#263238"></path><path d="M348.54,416.22h-4l-1-1.35-1.67,1.37H319.31a8.66,8.66,0,0,1,.6-4.6s7.83-1.27,10.86-3.35a2.31,2.31,0,0,1,1.78-.36c2.73.52,9.95,1.69,13.86.17a.68.68,0,0,1,.87.59A49.23,49.23,0,0,0,348.54,416.22Z" style="fill:#263238"></path><polygon points="397.34 381.96 412.08 377.83 417.76 394.98 405.45 398.45 397.34 381.96" style="fill:#ffc3bd"></polygon><polygon points="397.35 381.97 412.09 377.83 415.27 387.44 401.89 391.2 397.35 381.97" style="opacity:0.2"></polygon><path d="M395.43,316.21c-.86-23.18-2.31-57.85-11-67.76l-47.57,3.23s17.77,49.32,24.62,70.16c7.13,21.67,37.91,66.85,37.91,66.85l15.9-4.57S404,342,395.43,316.21Z" style="fill:#263238"></path><path d="M266.47,218.62l1.31,6.31c-1,6.69-9.42,3.84-9.42,3.84l-4.57.26a3.41,3.41,0,0,1-3.35-2.89l-.95-4.4a3.56,3.56,0,0,1,2.37-4.37l3.9-.87a7.11,7.11,0,0,1,3.43.09Z" style="fill:#ffc3bd"></path><path d="M242.49,231.33a15.74,15.74,0,0,1-15.26-12,1.5,1.5,0,0,1,2.92-.71,12.73,12.73,0,1,0,24.75-6L213.43,41.09a1.5,1.5,0,0,1,2.92-.7l41.46,171.5a15.72,15.72,0,0,1-11.59,19A15.85,15.85,0,0,1,242.49,231.33Z" style="fill:#263238"></path><path d="M107.62,117.88c-.46-4.13,6.83-9.26,16.71-11.65,10.23-2.47,19.31-1.08,20.33,3.11-1-4.19,9.22-10.25,22.86-13.55S193,93.21,194,97.4c-1-4.19,12.79-11.11,30.82-15.47s33.5-4.51,34.51-.32c-1-4.19,9.21-10.25,22.85-13.55s25.49-2.58,26.5,1.61c-1-4.19,6.46-9.58,16.66-12,9.88-2.39,18.74-1.17,20.21,2.73-6.65-25.21-64.66-32.84-130.06-17S102,92.42,107.62,117.88Z" style="fill:#2C3E50"></path><path d="M144.66,109.34c-1-4.19,9.22-10.25,22.86-13.55S193,93.21,194,97.4c-1-4.19,12.79-11.11,30.82-15.47s33.5-4.51,34.51-.32c-1-4.19,9.21-10.25,22.85-13.55s25.49-2.58,26.5,1.61c-6.16-25.5-47.88-37.3-93.19-26.34S138.49,83.83,144.66,109.34Z" style="opacity:0.2"></path><path d="M194,97.4c-1-4.19,12.79-11.11,30.82-15.47s33.5-4.51,34.51-.32C253.19,56.1,233.55,39,215.52,43.33S187.86,71.89,194,97.4Z" style="fill:#2C3E50"></path><path d="M268,219.35c-2.73-4.82-7.69-4.54-11.6-5.53-.66-.17-1.71,1.33-.9,2.27a5.69,5.69,0,0,0,3.8,2.29c.19,1.72,2.39,6.22,7.25,5.73A7,7,0,0,0,268,219.35Z" style="fill:#ffc3bd"></path><path d="M337.55,179.74c-2.08,3.12-4.22,6.14-6.35,9.19s-4.31,6.06-6.52,9.06c-4.41,6-8.92,11.95-13.67,17.88l-2,2.53-1.87.81c-1,.43-2,.88-2.93,1.25l-2.74,1c-1.76.58-3.51,1.15-5.22,1.64-3.42,1-6.81,1.86-10.17,2.66s-6.74,1.5-10.1,2.14-6.72,1.24-10.18,1.73l-4.09-15.7,18.44-7.22c3.05-1.18,6-2.44,8.95-3.67,1.46-.62,2.84-1.26,4.21-1.89l1.9-1,1.62-.9-3.9,3.34c3.95-6,7.89-12.19,11.85-18.34l6-9.24c2-3.06,4-6.17,6-9.18Z" style="fill:#2C3E50"></path><g style="opacity:0.6000000000000001"><path d="M337.55,179.74c-2.08,3.12-4.22,6.14-6.35,9.19s-4.31,6.06-6.52,9.06c-4.41,6-8.92,11.95-13.67,17.88l-2,2.53-1.87.81c-1,.43-2,.88-2.93,1.25l-2.74,1c-1.76.58-3.51,1.15-5.22,1.64-3.42,1-6.81,1.86-10.17,2.66s-6.74,1.5-10.1,2.14-6.72,1.24-10.18,1.73l-4.09-15.7,18.44-7.22c3.05-1.18,6-2.44,8.95-3.67,1.46-.62,2.84-1.26,4.21-1.89l1.9-1,1.62-.9-3.9,3.34c3.95-6,7.89-12.19,11.85-18.34l6-9.24c2-3.06,4-6.17,6-9.18Z" style="fill:#fff"></path></g><path d="M327.48,157.53a192.27,192.27,0,0,1,42.42-3.16,14.34,14.34,0,0,1,13.43,15.94c-3.58,33.76,3.29,73.44,3.2,80.06,0,0-62,25.53-78.59,6.19-8-40.24,3.52-75.28,8.9-89.93A14.29,14.29,0,0,1,327.48,157.53Z" style="fill:#2C3E50"></path><path d="M383.86,160.42c-2.67-3.42-7.42-7.92-23.35-7.1-13.82,12.1-23.45,28.76-23.45,28.76s-8.78-12.41-.45-26.5c-9.17.25-15.17,3.09-17.33,4.59s-12.75,21.66-15.09,53.66S307,305.67,309,321c29.83,12,79.16-1.5,89.66-12-1.33-24.33-10.49-60.83-12.16-76.33S388.19,167.17,383.86,160.42Z" style="fill:#2C3E50"></path><path d="M383.86,160.42c-2.67-3.42-7.42-7.92-23.35-7.1-13.82,12.1-23.45,28.76-23.45,28.76s-8.78-12.41-.45-26.5c-9.17.25-15.17,3.09-17.33,4.59s-12.75,21.66-15.09,53.66S307,305.67,309,321c29.83,12,79.16-1.5,89.66-12-1.33-24.33-10.49-60.83-12.16-76.33S388.19,167.17,383.86,160.42Z" style="fill:#fff;opacity:0.7000000000000001"></path><path d="M334.37,159.37a9,9,0,0,1,3.91-4.44,8.34,8.34,0,0,0-.36-5.58l20.27-8.53c-1.07,7.05-1.89,12.62,1,15.74-3.88,2.87-11,8.05-19.21,8.56S333.3,162.38,334.37,159.37Z" style="fill:#ffc3bd"></path><path d="M338.14,150l15.58-2.34c-4.42,5.68-11.67,8.32-15.24,6.5A8.29,8.29,0,0,0,338.14,150Z" style="opacity:0.2"></path><path d="M339.47,165.14,342.6,162l4.76,1.87S344.7,166.87,339.47,165.14Z" style="fill:#2C3E50"></path><path d="M339.47,165.14,342.6,162l4.76,1.87S344.7,166.87,339.47,165.14Z" style="opacity:0.30000000000000004"></path><path d="M337.57,137.68c-4.09-.65-6-6.56-3.32-9.84s-3.68-4.54-1.57-7.7,8.16-6.33,11.85-3.42-4.69,11.52-2.88,16.62A57.48,57.48,0,0,1,337.57,137.68Z" style="fill:#263238"></path><path d="M361.29,129.81c-1.56,9.93-2.83,16.64-9,20.31-12.3,7.29-18.7,1.19-20.14-9-1.3-9.19,1.46-23.88,11.62-26.84A13.84,13.84,0,0,1,361.29,129.81Z" style="fill:#ffc3bd"></path><path d="M356.86,140.33c-3.85-1.51-4.46-7.71-1.11-10.32s-2.61-5.23.14-7.87,10.83-5.22,12.3-.77c2.31,7-7.07,10.24-6.41,15.61A57.23,57.23,0,0,1,356.86,140.33Z" style="fill:#263238"></path><path d="M357.84,121.72c-9.63,3.32-7.34-3.44-12.7-2.5s-10.7,1.86-11.79-3c-.89-3.92,1.71-7.5,6.87-7.15-2.67,1.78-2,3.55.63,2.66s9.27-7.32,12.74-2.2,9.44,1.19,12.23,4.53S364.14,123,357.84,121.72Z" style="fill:#263238"></path><path d="M334.43,148.34a3.94,3.94,0,0,1,2.63-1.88,10.19,10.19,0,0,1,3.63,2.18c.5,2.42-5,4.86-5.8,5.19C334.61,151.67,334.43,148.34,334.43,148.34Z" style="fill:#263238"></path><path d="M348,130.51a4.6,4.6,0,0,1,3.53.16A9.28,9.28,0,0,1,348,130.51Z" style="opacity:0.2"></path><path d="M348,131.35a3.85,3.85,0,0,1,3.07.94A7.57,7.57,0,0,1,348,131.35Z" style="opacity:0.2"></path><path d="M334.23,129.35s-.82-1-1.43-.44A2,2,0,0,0,334.23,129.35Z" style="opacity:0.2"></path><path d="M334.08,130.13s-.67-.88-1.1,0A1,1,0,0,0,334.08,130.13Z" style="opacity:0.2"></path><path d="M337.23,121.66a32.32,32.32,0,0,1,8.86-.4C341.18,121.72,337.23,121.66,337.23,121.66Z" style="opacity:0.2"></path><path d="M336.09,123s6.77-.24,10.16,1.1A63.77,63.77,0,0,1,336.09,123Z" style="opacity:0.2"></path><path d="M365.1,140.09a9.46,9.46,0,0,1-6.06,4c-3.29.61-4.67-2.4-3.54-5.36,1-2.66,4-6.18,7.17-5.46S366.79,137.5,365.1,140.09Z" style="fill:#ffc3bd"></path><path d="M345.3,130.79c-.08.81-.57,1.42-1.1,1.37s-.9-.76-.83-1.57.57-1.43,1.11-1.38S345.38,130,345.3,130.79Z" style="fill:#263238"></path><path d="M336.67,130.09c-.08.81-.57,1.42-1.1,1.37s-.9-.76-.83-1.57.57-1.43,1.11-1.38S336.75,129.27,336.67,130.09Z" style="fill:#263238"></path><path d="M344.26,139.8c1.28.94,4.92.33,5.17-1,2.35,1.6.43,4.09-3,4.85s-7.88-.63-8.86-1.87l.12-4.11C340.29,137.18,342,138.16,344.26,139.8Z" style="fill:#263238"></path><path d="M332.79,138.77c-1.39.92-2.29.33-2.24-1-2.18,1.32-2,3.4.55,4.53s5.5.61,6.51-.5l.24-4.06C335.89,137,334.89,137.39,332.79,138.77Z" style="fill:#263238"></path><path d="M339.41,131l-.6,6.84s-2.66.36-4.09-.94A14.2,14.2,0,0,1,339.41,131Z" style="fill:#ed847e"></path><path d="M348.23,128.37a.44.44,0,0,0,.24-.07.48.48,0,0,0,.15-.66,4.79,4.79,0,0,0-3.7-2.37.47.47,0,0,0-.49.46.48.48,0,0,0,.46.5h0a3.85,3.85,0,0,1,2.92,1.91A.47.47,0,0,0,348.23,128.37Z" style="fill:#263238"></path><path d="M332.22,127.18a.48.48,0,0,0,.42-.19,3.74,3.74,0,0,1,3.09-1.53.48.48,0,0,0,.52-.44.49.49,0,0,0-.44-.52,4.72,4.72,0,0,0-3.93,1.9.48.48,0,0,0,.08.67A.54.54,0,0,0,332.22,127.18Z" style="fill:#263238"></path><path d="M403.26,240.93l6-2.34c6.77-.06,5.35,8.66,5.35,8.66l1,4.47a3.4,3.4,0,0,1-2.29,3.77l-4.19,1.67a3.55,3.55,0,0,1-4.69-1.62l-1.51-3.7a7.07,7.07,0,0,1-.48-3.4Z" style="fill:#ffc3bd"></path><path d="M382.6,159.08l1.31,1,1.18,1c.77.64,1.51,1.29,2.25,1.94,1.48,1.31,2.93,2.63,4.35,4,2.84,2.71,5.57,5.58,8.21,8.58q2,2.25,3.87,4.64t3.64,5a72.58,72.58,0,0,1,6.38,11.31l.89,2,.11,1.48c.27,3.48.48,7,.7,10.47l.67,10.47c.38,7,.76,14,1,21l-17.57,1.95c-1.32-6.86-2.49-13.74-3.68-20.61L394.23,213c-.56-3.44-1.12-6.88-1.63-10.32l1,3.48a50.35,50.35,0,0,0-4.9-7.22c-1.94-2.39-4.08-4.75-6.36-7.06s-4.71-4.54-7.21-6.7q-1.87-1.64-3.81-3.19l-1.92-1.52-.95-.73-.83-.62Z" style="fill:#2C3E50"></path><g style="opacity:0.7000000000000001"><path d="M382.6,159.08l1.31,1,1.18,1c.77.64,1.51,1.29,2.25,1.94,1.48,1.31,2.93,2.63,4.35,4,2.84,2.71,5.57,5.58,8.21,8.58q2,2.25,3.87,4.64t3.64,5a72.58,72.58,0,0,1,6.38,11.31l.89,2,.11,1.48c.27,3.48.48,7,.7,10.47l.67,10.47c.38,7,.76,14,1,21l-17.57,1.95c-1.32-6.86-2.49-13.74-3.68-20.61L394.23,213c-.56-3.44-1.12-6.88-1.63-10.32l1,3.48a50.35,50.35,0,0,0-4.9-7.22c-1.94-2.39-4.08-4.75-6.36-7.06s-4.71-4.54-7.21-6.7q-1.87-1.64-3.81-3.19l-1.92-1.52-.95-.73-.83-.62Z" style="fill:#fff"></path></g><path d="M357.33,152.19s-6,8.61-14.73,9.83a25.11,25.11,0,0,1,9.21,6.55s9-7,10.23-13.86C361.17,152.24,357.33,152.19,357.33,152.19Z" style="fill:#2C3E50"></path><path d="M342.39,322.17a.49.49,0,0,1-.49-.4c-13.8-68.07-5.62-137.8-5.54-138.5a.5.5,0,0,1,1,.12c-.08.7-8.24,70.27,5.53,138.18a.51.51,0,0,1-.39.59Z" style="fill:#2C3E50;opacity:0.30000000000000004"></path><path d="M357.14,200.65H342.09a1.74,1.74,0,0,1-1.76-2.05l1-6.87a2.49,2.49,0,0,1,2.37-2h15a1.74,1.74,0,0,1,1.76,2l-1,6.87A2.49,2.49,0,0,1,357.14,200.65Z" style="fill:#fff"></path><path d="M351.81,191.36h-1.63a.44.44,0,0,1-.45-.52l.61-4.08a.62.62,0,0,1,.6-.52h1.63a.44.44,0,0,1,.45.52l-.61,4.08A.62.62,0,0,1,351.81,191.36Z" style="fill:#2C3E50"></path><path d="M339.47,165.14l-4.15-3.09-4.75,1.89S334.64,167.78,339.47,165.14Z" style="fill:#2C3E50"></path><path d="M339.47,165.14l-4.15-3.09-4.75,1.89S334.64,167.78,339.47,165.14Z" style="opacity:0.30000000000000004"></path><path d="M338.28,154.93s-3,4.26-3,7.12c-3,1.38-7.54,5.21-7.54,5.21s.59-6,6.6-11.23A6.92,6.92,0,0,1,338.28,154.93Z" style="fill:#2C3E50"></path><path d="M422.51,396.41l-2.75,1.88-1.5-.61-.68,2.11L401,411.12a9,9,0,0,1-1.89-4.28s4.66-3.84,4.87-7.62a.75.75,0,0,1,.45-.66c1.89-.78,9.29-4,12-7.79a.72.72,0,0,1,1.18,0A49.27,49.27,0,0,0,422.51,396.41Z" style="fill:#263238"></path></g></svg>